<!-- Generated by graphviz version 14.0.4 (0) --><!-- Title: How pan time plays into rendering Pages: 1 --><svg width="552pt" height="260pt" viewBox="0.00 0.00 552.00 260.00"><g id="graph0" class="graph" transform="scale(1 1) rotate(0) translate(4 256)"><title>How pan time plays into rendering</title><polygon fill="white" stroke="none" points="-4,4 -4,-256 547.59,-256 547.59,4 -4,4"/><!-- ppt --><g id="node1" class="node"><title>ppt</title><ellipse fill="none" stroke="black" cx="268.25" cy="-234" rx="160.11" ry="18"/><text xml:space="preserve" text-anchor="middle" x="268.25" y="-229.32" font-family="Times,serif" font-size="14.00">Pre&#45;pantime output of unit 🐄</text></g><!-- po_l --><g id="node2" class="node"><title>po_l</title><ellipse fill="none" stroke="blue" cx="115.25" cy="-162" rx="106.45" ry="18"/><text xml:space="preserve" text-anchor="middle" x="115.25" y="-157.32" font-family="Times,serif" font-size="14.00">left pan&#45;time offset</text></g><!-- ppt&#45;&gt;po_l --><!-- po_r --><g id="node3" class="node"><title>po_r</title><ellipse fill="none" stroke="red" cx="429.25" cy="-162" rx="114.34" ry="18"/><text xml:space="preserve" text-anchor="middle" x="429.25" y="-157.32" font-family="Times,serif" font-size="14.00">right pan&#45;time offset</text></g><!-- ppt&#45;&gt;po_r --><!-- lbuf --><g id="node5" class="node"><title>lbuf</title><polygon fill="none" stroke="black" points="59.75,-78.38 59.75,-101.62 79.25,-101.62 79.25,-78.38 59.75,-78.38"/><text xml:space="preserve" text-anchor="start" x="62.75" y="-85.33" font-family="Times,serif" font-size="14.00">...</text><polygon fill="none" stroke="black" points="79.25,-78.38 79.25,-101.62 103.25,-101.62 103.25,-78.38 79.25,-78.38"/><text xml:space="preserve" text-anchor="start" x="82.25" y="-85.33" font-family="Times,serif" font-size="14.00"> &#160;&#160;&#160;</text><polygon fill="blue" stroke="none" points="103.25,-78.38 103.25,-101.62 127.25,-101.62 127.25,-78.38 103.25,-78.38"/><polygon fill="none" stroke="black" points="103.25,-78.38 103.25,-101.62 127.25,-101.62 127.25,-78.38 103.25,-78.38"/><text xml:space="preserve" text-anchor="start" x="106.25" y="-85.33" font-family="Times,serif" font-size="14.00"> &#160;&#160;&#160;</text><polygon fill="none" stroke="black" points="127.25,-78.38 127.25,-101.62 151.25,-101.62 151.25,-78.38 127.25,-78.38"/><text xml:space="preserve" text-anchor="start" x="130.25" y="-85.33" font-family="Times,serif" font-size="14.00"> &#160;&#160;&#160;</text><polygon fill="none" stroke="black" points="151.25,-78.38 151.25,-101.62 175.25,-101.62 175.25,-78.38 151.25,-78.38"/><text xml:space="preserve" text-anchor="start" x="154.25" y="-85.33" font-family="Times,serif" font-size="14.00"> &#160;&#160;&#160;</text><polygon fill="none" stroke="black" points="175.25,-78.38 175.25,-101.62 199.25,-101.62 199.25,-78.38 175.25,-78.38"/><text xml:space="preserve" text-anchor="start" x="178.25" y="-85.33" font-family="Times,serif" font-size="14.00"> &#160;&#160;&#160;</text><polygon fill="none" stroke="black" points="199.25,-78.38 199.25,-101.62 218.75,-101.62 218.75,-78.38 199.25,-78.38"/><text xml:space="preserve" text-anchor="start" x="202.25" y="-85.33" font-family="Times,serif" font-size="14.00">...</text><text xml:space="preserve" text-anchor="middle" x="25.88" y="-111.95" font-family="Times,serif" font-size="14.00">left buf</text></g><!-- ppt&#45;&gt;lbuf --><g id="edge4" class="edge"><title>ppt&#45;&gt;lbuf</title><path fill="none" stroke="black" d="M264.4,-215.83C259.34,-196.5 248.82,-165.03 230.25,-144 219.24,-131.53 204.55,-121.23 190.2,-113.13"/><polygon fill="black" stroke="black" points="192.17,-110.21 181.7,-108.59 188.87,-116.39 192.17,-110.21"/></g><!-- rbuf --><g id="node6" class="node"><title>rbuf</title><polygon fill="none" stroke="black" points="324.75,-78.38 324.75,-101.62 344.25,-101.62 344.25,-78.38 324.75,-78.38"/><text xml:space="preserve" text-anchor="start" x="327.75" y="-85.33" font-family="Times,serif" font-size="14.00">...</text><polygon fill="none" stroke="black" points="344.25,-78.38 344.25,-101.62 368.25,-101.62 368.25,-78.38 344.25,-78.38"/><text xml:space="preserve" text-anchor="start" x="347.25" y="-85.33" font-family="Times,serif" font-size="14.00"> &#160;&#160;&#160;</text><polygon fill="none" stroke="black" points="368.25,-78.38 368.25,-101.62 392.25,-101.62 392.25,-78.38 368.25,-78.38"/><text xml:space="preserve" text-anchor="start" x="371.25" y="-85.33" font-family="Times,serif" font-size="14.00"> &#160;&#160;&#160;</text><polygon fill="none" stroke="black" points="392.25,-78.38 392.25,-101.62 416.25,-101.62 416.25,-78.38 392.25,-78.38"/><text xml:space="preserve" text-anchor="start" x="395.25" y="-85.33" font-family="Times,serif" font-size="14.00"> &#160;&#160;&#160;</text><polygon fill="red" stroke="none" points="416.25,-78.38 416.25,-101.62 440.25,-101.62 440.25,-78.38 416.25,-78.38"/><polygon fill="none" stroke="black" points="416.25,-78.38 416.25,-101.62 440.25,-101.62 440.25,-78.38 416.25,-78.38"/><text xml:space="preserve" text-anchor="start" x="419.25" y="-85.33" font-family="Times,serif" font-size="14.00"> &#160;&#160;&#160;</text><polygon fill="none" stroke="black" points="440.25,-78.38 440.25,-101.62 464.25,-101.62 464.25,-78.38 440.25,-78.38"/><text xml:space="preserve" text-anchor="start" x="443.25" y="-85.33" font-family="Times,serif" font-size="14.00"> &#160;&#160;&#160;</text><polygon fill="none" stroke="black" points="464.25,-78.38 464.25,-101.62 483.75,-101.62 483.75,-78.38 464.25,-78.38"/><text xml:space="preserve" text-anchor="start" x="467.25" y="-85.33" font-family="Times,serif" font-size="14.00">...</text><text xml:space="preserve" text-anchor="middle" x="285.25" y="-111.95" font-family="Times,serif" font-size="14.00">right buf</text></g><!-- ppt&#45;&gt;rbuf --><g id="edge5" class="edge"><title>ppt&#45;&gt;rbuf</title><path fill="none" stroke="black" d="M271.98,-215.73C276.93,-196.29 287.35,-164.73 306.25,-144 317.9,-131.22 333.37,-120.9 348.57,-112.88"/><polygon fill="black" stroke="black" points="349.73,-116.22 357.12,-108.62 346.61,-109.95 349.73,-116.22"/></g><!-- po_l&#45;&gt;lbuf --><g id="edge6" class="edge"><title>po_l&#45;&gt;lbuf:l1</title><path fill="none" stroke="black" d="M115.25,-143.63C115.25,-135.11 115.25,-124.42 115.25,-113.89"/><polygon fill="black" stroke="black" points="118.75,-114.14 115.25,-104.14 111.75,-114.14 118.75,-114.14"/></g><!-- po_r&#45;&gt;rbuf --><g id="edge7" class="edge"><title>po_r&#45;&gt;rbuf:r3</title><path fill="none" stroke="black" d="M428.8,-143.63C428.6,-135.11 428.4,-124.42 428.3,-113.89"/><polygon fill="black" stroke="black" points="431.81,-114.12 428.26,-104.14 424.81,-114.16 431.81,-114.12"/></g><!-- out_samp --><g id="node4" class="node"><title>out_samp</title><ellipse fill="none" stroke="black" cx="271.25" cy="-18" rx="85.41" ry="18"/><text xml:space="preserve" text-anchor="middle" x="271.25" y="-13.32" font-family="Times,serif" font-size="14.00">Output sample</text></g><!-- lbuf&#45;&gt;out_samp --><g id="edge8" class="edge"><title>lbuf:l1&#45;&gt;out_samp</title><path fill="none" stroke="black" d="M115.25,-77.38C115.25,-58.17 157.24,-43.18 197.66,-33.2"/><polygon fill="black" stroke="black" points="198.3,-36.64 207.22,-30.93 196.69,-29.83 198.3,-36.64"/></g><!-- lbuf&#45;&gt;rbuf --><!-- rbuf&#45;&gt;out_samp --><g id="edge9" class="edge"><title>rbuf:r3&#45;&gt;out_samp</title><path fill="none" stroke="black" d="M428.25,-77.38C428.25,-58.06 385.99,-43.08 345.32,-33.13"/><polygon fill="black" stroke="black" points="346.21,-29.74 335.68,-30.86 344.61,-36.56 346.21,-29.74"/></g></g></svg>